<?xml version="1.0" standalone="no"?>
<!DOCTYPE svg PUBLIC "-//W3C//DTD SVG 20010904//EN"
 "http://www.w3.org/TR/2001/REC-SVG-20010904/DTD/svg10.dtd">
<svg version="1.0" xmlns="http://www.w3.org/2000/svg"
 width="534.000000pt" height="534.000000pt" viewBox="0 0 534.000000 534.000000"
 preserveAspectRatio="xMidYMid meet">

<g transform="translate(0.000000,534.000000) scale(0.100000,-0.100000)"
fill="#000000" stroke="none">
<path d="M1305 5017 c-16 -47 -985 -3687 -985 -3699 0 -9 12 -19 27 -23 16 -3
851 -227 1857 -496 1006 -269 1830 -488 1831 -487 10 12 992 3714 987 3719 -4
3 -828 226 -1832 494 -1004 268 -1838 491 -1853 496 -19 5 -29 4 -32 -4z
m1648 -1875 c202 -55 369 -101 372 -103 2 -2 -58 -236 -134 -519 -124 -459
-141 -515 -157 -512 -34 6 -989 262 -1005 270 -16 7 24 164 237 943 l26 97
146 -39 c81 -21 312 -83 515 -137z"/>
</g>
</svg>
